<svg xmlns="http://www.w3.org/2000/svg" version="1.1" xmlns:xlink="http://www.w3.org/1999/xlink" xmlns:svgjs="http://svgjs.dev/svgjs" width="100" height="100"><svg version="1.1" id="SvgjsSvg1028" xmlns="http://www.w3.org/2000/svg" xmlns:xlink="http://www.w3.org/1999/xlink" x="0px" y="0px" viewBox="0 0 100 100" enable-background="new 0 0 100 100" xml:space="preserve"><g><path fill="#E15B64" d="M88.24,13.99H11.76c-2.31,0-4.18,1.87-4.18,4.18v15.21h84.83V18.17C92.42,15.86,90.55,13.99,88.24,13.99z"></path><circle fill="#C33737" cx="19.8" cy="23.95" r="3.5"></circle><line fill="#333333" stroke="#CCCCCC" stroke-width="4" stroke-linecap="round" stroke-miterlimit="10" x1="19.8" y1="10.03" x2="19.8" y2="23.95"></line><circle fill="#C33737" cx="34.91" cy="23.95" r="3.5"></circle><line fill="#333333" stroke="#CCCCCC" stroke-width="4" stroke-linecap="round" stroke-miterlimit="10" x1="34.91" y1="10.03" x2="34.91" y2="23.95"></line><circle fill="#C33737" cx="50.01" cy="23.95" r="3.5"></circle><line fill="#333333" stroke="#CCCCCC" stroke-width="4" stroke-linecap="round" stroke-miterlimit="10" x1="50.01" y1="10.03" x2="50.01" y2="23.95"></line><circle fill="#C33737" cx="65.11" cy="23.95" r="3.5"></circle><line fill="#333333" stroke="#CCCCCC" stroke-width="4" stroke-linecap="round" stroke-miterlimit="10" x1="65.11" y1="10.03" x2="65.11" y2="23.95"></line><circle fill="#C33737" cx="80.22" cy="23.95" r="3.5"></circle><line fill="#333333" stroke="#CCCCCC" stroke-width="4" stroke-linecap="round" stroke-miterlimit="10" x1="80.22" y1="10.03" x2="80.22" y2="23.95"></line></g><g><path fill="#E0E0E0" d="M7.58,33.38v51.84c0,2.31,1.87,4.18,4.18,4.18h64.95h1.4l14.3-14.3v-1.4V33.38H7.58z"></path><path fill="#B3B3B3" d="M92.42,73.7H81.27c-2.52,0-4.55,2.04-4.55,4.55V89.4h1.4l14.3-14.3V73.7z"></path></g><rect x="53.23" y="40.25" fill="#A0C8D7" width="12" height="12"></rect><rect x="71.7" y="40.25" fill="#A0C8D7" width="12" height="12"></rect><rect x="16.3" y="55.75" fill="#A0C8D7" width="12" height="12"></rect><rect x="34.77" y="55.75" fill="#A0C8D7" width="12" height="12"></rect><rect x="53.23" y="55.75" fill="#A0C8D7" width="12" height="12"></rect><rect x="71.7" y="55.75" fill="#A0C8D7" width="12" height="12"></rect><rect x="16.3" y="71.25" fill="#A0C8D7" width="12" height="12"></rect><rect x="34.77" y="71.25" fill="#FFFFFF" width="12" height="12"></rect><rect x="53.23" y="71.25" fill="#FFFFFF" width="12" height="12"></rect><polyline fill="none" stroke="#39B54A" stroke-width="3.5" stroke-linecap="round" stroke-linejoin="round" stroke-miterlimit="10" points=" 16.44,45.82 20.35,49.72 28.35,41.72 "></polyline><polyline fill="none" stroke="#39B54A" stroke-width="3.5" stroke-linecap="round" stroke-linejoin="round" stroke-miterlimit="10" points=" 34.44,45.82 38.35,49.72 46.35,41.72 "></polyline><metadata xmlns:d="https://loading.io/stock/">
<d:name>calendar</d:name>
<d:tags>calendar,schedule,plan,travel,holiday,work,business</d:tags>
<d:license>by</d:license>
<d:slug>cgof25</d:slug>
</metadata></svg><style>@media (prefers-color-scheme: light) { :root { filter: none; } }
@media (prefers-color-scheme: dark) { :root { filter: none; } }
</style></svg>